<?xml version="1.0" standalone="no"?><!DOCTYPE svg PUBLIC "-//W3C//DTD SVG 1.1//EN" "http://www.w3.org/Graphics/SVG/1.1/DTD/svg11.dtd"><svg t="1673696464447" class="icon" viewBox="0 0 1024 1024" version="1.1" xmlns="http://www.w3.org/2000/svg" p-id="12880" xmlns:xlink="http://www.w3.org/1999/xlink" width="200" height="200"><path d="M512 512m-464 0a464 464 0 1 0 928 0 464 464 0 1 0-928 0Z" p-id="12881" data-spm-anchor-id="a313x.7781069.0.i11" class="selected" fill="#515151"></path><path d="M750.56 336l-77.28 364.8c-5.76 25.76-20.96 32-42.56 20l-117.76-86.72L456.16 688a29.76 29.76 0 0 1-23.68 11.52l8.48-119.84L659.04 384c9.6-8.48-1.92-13.12-14.72-4.8L374.56 548.32 258.56 512c-25.28-8-25.76-25.28 5.12-37.44l454.24-175.04c21.12-7.84 39.52 4.48 32.64 36.48z" fill="#FFFFFF" p-id="12882"></path></svg>