<?xml version="1.0" standalone="no"?><!DOCTYPE svg PUBLIC "-//W3C//DTD SVG 1.1//EN" "http://www.w3.org/Graphics/SVG/1.1/DTD/svg11.dtd"><svg t="1673697732542" class="icon" viewBox="0 0 1024 1024" version="1.1" xmlns="http://www.w3.org/2000/svg" p-id="14618" xmlns:xlink="http://www.w3.org/1999/xlink" width="200" height="200"><path d="M518.912 79.616a426.666667 426.666667 0 1 0 426.666667 426.666667 426.666667 426.666667 0 0 0-426.666667-426.666667z m0 640a213.333333 213.333333 0 1 1 213.333333-213.333333 213.333333 213.333333 0 0 1-213.333333 213.333333z" fill="#515151" p-id="14619" data-spm-anchor-id="a313x.7781069.0.i6" class="selected"></path><path d="M518.912 514.816m-85.333333 0a85.333333 85.333333 0 1 0 170.666666 0 85.333333 85.333333 0 1 0-170.666666 0Z" fill="#515151" p-id="14620" data-spm-anchor-id="a313x.7781069.0.i7" class="selected"></path><path d="M942.592 546.133333L687.786667 800.682667H518.144c-2.133333-12.288-8.533333-21.333333-16.298667-21.333334s-14.165333 9.045333-16.298666 21.333334h-17.834667v8.533333h17.066667c0 16.469333 7.68 29.866667 17.066666 29.866667s17.066667-13.397333 17.066667-29.866667H691.2l257.194667-257.28z" fill="#FFFFFF" p-id="14621"></path></svg>